# This file uses centimeters as units for non-parametric coordinates.

mtllib crystal.mtl
g default
v -3.189286 -0.000000 3.363170
v 0.103518 -0.000000 3.363170
v 3.396321 -0.000000 3.363170
v -3.189286 3.864188 3.363170
v 0.103518 4.895951 3.363170
v 3.396321 3.827696 3.363170
v -3.189286 4.895950 0.070366
v 0.103518 5.659429 0.070366
v 3.396321 5.659429 0.070366
v -3.189286 4.264426 -3.222437
v 0.103518 5.659429 -3.222437
v 3.396321 5.194921 -3.222437
v -3.189286 -0.000000 -3.222437
v 0.103518 -0.000000 -3.222437
v 3.396321 -0.000000 -3.222437
v -3.189286 -0.000000 0.070366
v 0.103518 -0.000000 0.070366
v 3.396321 -0.000000 0.070366
v 0.672753 13.729838 -0.498869
v 3.965557 13.729838 -0.498869
v 3.965557 13.265330 -3.791673
v 0.672753 13.729838 -3.791673
v -5.651116 12.407089 -0.649911
v -2.358313 13.170568 -0.649911
v -2.358313 13.170568 -3.942714
v -5.651116 11.775565 -3.942714
v -6.377850 15.561020 6.551732
v -3.085046 16.592783 6.551732
v -3.085046 17.356261 3.258928
v -6.377850 16.592781 3.258928
v 1.359674 12.639940 6.414867
v 4.652478 11.571686 6.414867
v 4.652478 13.403418 3.122063
v 1.359674 13.403418 3.122063
v 2.888627 12.143915 6.414867
v 2.888627 13.403418 3.122063
v 1.632470 5.659428 0.070366
v 2.201706 13.729838 -0.498869
v 2.201706 13.514152 -3.791673
v 1.632470 5.443743 -3.222437
v 1.632470 0.000000 -3.222437
v 1.632470 0.000000 0.070366
v 1.632470 0.000000 3.363170
v 1.632470 4.399926 3.363170
v 1.359674 13.022326 4.765676
v 0.103518 5.278336 1.713980
v -3.085046 16.975168 4.902542
v -6.377850 16.077774 4.902542
v -3.189286 4.380943 1.713980
v -3.189286 -0.000000 1.713980
v 0.103518 -0.000000 1.713980
v 1.632470 0.000000 1.713980
v 3.396321 -0.000000 1.713980
v 3.396321 4.745114 1.713980
v 4.652478 12.489104 4.765676
v 2.888627 15.127003 4.765676
v -4.905318 16.022421 6.551732
v -4.905319 20.130810 5.272525
v -4.905318 16.934206 3.258928
v -1.716754 5.237375 0.070366
v -4.178584 12.748514 -0.649911
v -4.178584 12.399406 -3.942714
v -1.716754 4.888267 -3.222437
v -1.716754 0.000000 -3.222437
v -1.716754 0.000000 0.070366
v -1.716754 0.000000 1.713980
v -1.716754 0.000000 3.363170
v -1.716754 4.325589 3.363170
v -2.358313 13.170568 -2.466814
v -4.178584 14.750223 -2.466814
v -5.651116 12.058626 -2.466814
v -3.189286 4.547488 -1.746537
v -3.189286 -0.000000 -1.746537
v -1.716754 0.000000 -1.746537
v 0.103518 -0.000000 -1.746537
v 1.632470 0.000000 -1.746537
v 3.396321 -0.000000 -1.746537
v 3.396321 5.403123 -1.746537
v 3.965557 13.473532 -2.315772
v 2.201706 15.594367 -2.315772
v 0.672753 13.729838 -2.315772
v 0.103518 5.659429 -1.746537
vt 0.375000 0.000000
vt 0.500000 0.000000
vt 0.625000 0.000000
vt 0.375000 0.250000
vt 0.500000 0.250000
vt 0.625000 0.250000
vt 0.375000 0.375000
vt 0.500000 0.375000
vt 0.625000 0.375000
vt 0.375000 0.500000
vt 0.500000 0.500000
vt 0.625000 0.500000
vt 0.375000 0.750000
vt 0.500000 0.750000
vt 0.625000 0.750000
vt 0.375000 0.875000
vt 0.500000 0.875000
vt 0.625000 0.875000
vt 0.375000 1.000000
vt 0.500000 1.000000
vt 0.625000 1.000000
vt 0.875000 0.000000
vt 0.750000 0.000000
vt 0.875000 0.250000
vt 0.750000 0.250000
vt 0.125000 0.000000
vt 0.250000 0.000000
vt 0.125000 0.250000
vt 0.250000 0.250000
vt 0.500000 0.375000
vt 0.625000 0.375000
vt 0.625000 0.500000
vt 0.500000 0.500000
vt 0.375000 0.375000
vt 0.500000 0.375000
vt 0.500000 0.500000
vt 0.375000 0.500000
vt 0.375000 0.250000
vt 0.500000 0.250000
vt 0.500000 0.375000
vt 0.375000 0.375000
vt 0.500000 0.250000
vt 0.625000 0.250000
vt 0.625000 0.375000
vt 0.500000 0.375000
vt 0.558041 0.250000
vt 0.558041 0.375000
vt 0.558041 0.375000
vt 0.558041 0.375000
vt 0.558041 0.500000
vt 0.558041 0.500000
vt 0.558041 0.750000
vt 0.558041 0.875000
vt 0.558041 0.000000
vt 0.558041 1.000000
vt 0.558041 0.250000
vt 0.500000 0.312606
vt 0.500000 0.312606
vt 0.500000 0.312606
vt 0.375000 0.312606
vt 0.312394 0.250000
vt 0.375000 0.312606
vt 0.312394 0.000000
vt 0.375000 0.937394
vt 0.500000 0.937394
vt 0.558041 0.937394
vt 0.625000 0.937394
vt 0.687606 0.000000
vt 0.625000 0.312606
vt 0.687606 0.250000
vt 0.625000 0.312606
vt 0.558041 0.312606
vt 0.430900 0.250000
vt 0.430900 0.312606
vt 0.430900 0.375000
vt 0.430900 0.375000
vt 0.430900 0.375000
vt 0.430900 0.500000
vt 0.430900 0.500000
vt 0.430900 0.750000
vt 0.430900 0.875000
vt 0.430900 0.937394
vt 0.430900 0.000000
vt 0.430900 1.000000
vt 0.430900 0.250000
vt 0.500000 0.443972
vt 0.430900 0.443972
vt 0.375000 0.443972
vt 0.181028 0.250000
vt 0.375000 0.443972
vt 0.181028 0.000000
vt 0.375000 0.806028
vt 0.430900 0.806028
vt 0.500000 0.806028
vt 0.558041 0.806028
vt 0.625000 0.806028
vt 0.818972 0.000000
vt 0.625000 0.443972
vt 0.818972 0.250000
vt 0.625000 0.443972
vt 0.558041 0.443972
vt 0.500000 0.443972
vt 0.500000 0.443972
vn 0.000000 0.000000 1.000000
vn 0.000000 0.000000 1.000000
vn 0.056939 -0.181717 0.981701
vn 0.055473 -0.177038 0.982640
vn 0.000000 0.000000 1.000000
vn -0.000000 0.000000 1.000000
vn -0.076853 -0.236893 0.968491
vn 0.004119 -0.216625 0.976246
vn -0.679494 0.392476 0.619880
vn -0.278495 0.518714 0.808317
vn -0.158135 0.960582 0.228638
vn -0.820312 0.523012 0.231401
vn -0.345538 0.656838 0.670199
vn 0.236715 0.646731 0.725055
vn 0.135993 0.942604 0.304964
vn -0.486317 0.813859 0.318009
vn -0.683906 0.664072 0.302128
vn -0.303773 0.851190 0.428016
vn -0.237962 0.969911 -0.051449
vn -0.725027 0.672619 -0.148051
vn -0.476846 0.782047 0.401273
vn 0.035129 0.902607 0.429030
vn 0.069879 0.996748 -0.040141
vn -0.500303 0.865387 -0.028343
vn 0.020841 -0.049193 -0.998572
vn 0.022129 -0.052235 -0.998390
vn -0.000000 0.000000 -1.000000
vn 0.000000 0.000000 -1.000000
vn 0.010299 -0.051622 -0.998614
vn -0.005927 -0.042014 -0.999099
vn 0.000000 0.000000 -1.000000
vn 0.000000 0.000000 -1.000000
vn 0.000000 -1.000000 0.000000
vn 0.000000 -1.000000 0.000000
vn 0.000000 -1.000000 0.000000
vn 0.000000 -1.000000 0.000000
vn -0.000000 -1.000000 0.000000
vn 0.000000 -1.000000 0.000000
vn -0.000000 -1.000000 0.000000
vn -0.000000 -1.000000 0.000000
vn 0.000000 -1.000000 0.000000
vn 0.000000 -1.000000 0.000000
vn 0.000000 -1.000000 0.000000
vn 0.000000 -1.000000 0.000000
vn -0.000000 -1.000000 0.000000
vn -0.000000 -1.000000 0.000000
vn 0.000000 -1.000000 0.000000
vn -0.000000 -1.000000 0.000000
vn 1.000000 0.000000 0.000000
vn 1.000000 0.000000 0.000000
vn 0.999116 -0.041624 0.005872
vn 0.997277 -0.070052 -0.023061
vn 1.000000 0.000000 0.000000
vn 1.000000 0.000000 0.000000
vn 0.995007 -0.087222 -0.048520
vn 0.995797 -0.080039 -0.044524
vn -1.000000 0.000000 0.000000
vn -1.000000 0.000000 0.000000
vn -0.979923 -0.198796 -0.015241
vn -0.979963 -0.195612 0.037516
vn -1.000000 0.000000 0.000000
vn -1.000000 0.000000 0.000000
vn -0.982704 -0.176712 -0.055371
vn -0.981489 -0.182755 -0.057264
vn 0.000000 0.070359 0.997522
vn 0.000000 0.070359 0.997522
vn -0.000000 0.070359 0.997522
vn 0.000000 0.070359 0.997522
vn 0.997522 -0.069666 0.009828
vn 0.997522 -0.069666 0.009828
vn -0.009828 -0.069666 -0.997522
vn -0.009828 -0.069666 -0.997522
vn -0.997522 0.070359 0.000000
vn -0.997522 0.070359 0.000000
vn -0.997522 0.070359 0.000000
vn -0.997522 0.070359 0.000000
vn -0.020578 0.088751 0.995841
vn -0.020578 0.088751 0.995841
vn -0.020578 0.088751 0.995841
vn -0.020578 0.088751 0.995841
vn 0.950261 0.311455 0.000000
vn 0.950261 0.311455 0.000000
vn 0.950261 0.311455 0.000000
vn 0.950261 0.311455 0.000000
vn 0.035524 -0.083853 -0.995845
vn 0.035524 -0.083853 -0.995845
vn -0.950276 -0.305835 0.058656
vn -0.950276 -0.305835 0.058656
vn 0.076103 -0.242877 0.967067
vn 0.076103 -0.242877 0.967067
vn 0.967065 0.247951 0.057490
vn 0.967065 0.247951 0.057490
vn 0.967065 0.247951 0.057490
vn 0.967065 0.247951 0.057490
vn -0.057491 0.247951 -0.967065
vn -0.057490 0.247951 -0.967065
vn -0.057490 0.247951 -0.967065
vn -0.057491 0.247951 -0.967065
vn -0.967067 -0.242878 -0.076103
vn -0.967067 -0.242877 -0.076103
vn -0.113016 -0.348361 0.930522
vn -0.113016 -0.348361 0.930522
vn 0.988608 -0.131529 -0.073168
vn 0.988608 -0.131529 -0.073168
vn 0.000000 0.366632 -0.930366
vn 0.000000 0.366632 -0.930366
vn 0.000000 0.366632 -0.930366
vn 0.000000 0.366632 -0.930366
vn -0.988560 0.146930 0.034067
vn -0.988560 0.146930 0.034067
vn -0.988560 0.146930 0.034067
vn -0.988560 0.146930 0.034067
vn 0.506600 0.556718 0.658348
vn 0.579089 0.680897 0.448370
vn 0.000000 0.366632 -0.930366
vn 0.000000 0.366632 -0.930366
vn -0.000000 0.070359 0.997522
vn -0.000000 0.070359 0.997522
vn 0.481757 0.801333 0.354648
vn 0.532223 0.837861 -0.121360
vn -0.005645 -0.040017 -0.999183
vn -0.009828 -0.069666 -0.997522
vn -0.000000 0.000000 -1.000000
vn -0.000000 -1.000000 0.000000
vn -0.000000 -1.000000 0.000000
vn -0.000000 -1.000000 0.000000
vn -0.000000 -1.000000 0.000000
vn -0.000000 0.000000 1.000000
vn -0.070955 -0.218715 0.973206
vn -0.113016 -0.348361 0.930522
vn -0.988560 0.146930 0.034068
vn -0.988560 0.146930 0.034068
vn 0.967065 0.247951 0.057490
vn 0.967065 0.247951 0.057490
vn -0.291645 0.764769 -0.574519
vn -0.748591 0.534697 -0.392059
vn -0.967067 -0.242877 -0.076103
vn 0.988608 -0.131529 -0.073168
vn 0.587544 0.785732 -0.193437
vn 0.076854 0.949191 -0.305171
vn -0.537368 0.780748 -0.318855
vn 0.427595 0.493766 0.757204
vn 0.588106 0.769259 0.249742
vn 0.470350 0.699264 -0.538331
vn -0.057491 0.247951 -0.967065
vn -0.057491 0.247951 -0.967065
vn -0.020578 0.088751 0.995841
vn -0.020578 0.088751 0.995841
vn 0.268302 0.843784 0.464804
vn 0.264805 0.962950 -0.051047
vn 0.035524 -0.083853 -0.995845
vn 0.076103 -0.242877 0.967067
vn -0.372566 0.707195 -0.600891
vn 0.171157 0.770697 -0.613784
vn -0.643184 0.571333 -0.509797
vn -0.981595 -0.187558 0.035971
vn -0.950276 -0.305835 0.058656
vn -1.000000 0.000000 0.000000
vn 0.000000 -1.000000 0.000000
vn -0.000000 -1.000000 0.000000
vn 0.000000 -1.000000 0.000000
vn 0.000000 -1.000000 0.000000
vn -0.000000 -1.000000 0.000000
vn 1.000000 0.000000 0.000000
vn 0.999180 -0.040083 0.005654
vn 0.997522 -0.069666 0.009828
vn 0.121786 0.795933 -0.593008
vn 0.468898 0.698047 -0.541169
vn -0.403317 0.747982 -0.527123
vn -0.997522 0.070359 0.000000
vn -0.997522 0.070359 0.000000
vn 0.950261 0.311455 0.000000
vn 0.950261 0.311455 0.000000
s 1
g pCube1
usemtl initialShadingGroup
f 1/1/1 67/83/2 68/85/3 4/4/4
f 2/2/5 43/54/6 44/56/7 5/5/8
s 3
f 27/38/9 57/73/10 58/74/11 48/60/12
s 4
f 31/42/13 35/46/14 56/72/15 45/57/16
s 5
f 23/34/17 61/77/18 70/87/19 71/88/20
s 6
f 19/30/21 38/49/22 80/101/23 81/102/24
s 7
f 10/10/25 63/79/26 64/80/27 13/13/28
f 11/11/29 40/51/30 41/52/31 14/14/32
s 9
f 73/92/33 74/93/34 65/81/35 16/16/36
f 75/94/37 76/95/38 42/53/39 17/17/40
f 50/64/41 66/82/42 67/84/43 1/19/44
f 51/65/45 52/66/46 43/55/47 2/20/48
s 11
f 18/23/49 77/97/50 78/99/51 9/25/52
f 3/3/53 53/68/54 54/70/55 6/6/56
s 12
f 73/91/57 16/27/58 7/29/59 72/89/60
f 50/63/61 1/1/62 4/4/63 49/61/64
s 14
f 8/8/65 37/48/66 38/49/67 19/30/68
s 11
f 9/9/52 78/98/51 79/100/69 20/31/70
s 7
f 40/51/30 11/11/29 22/33/71 39/50/72
s 15
f 82/103/73 8/8/74 19/30/75 81/102/76
s 16
f 7/7/77 60/76/78 61/77/79 23/34/80
s 17
f 8/8/81 82/103/82 69/86/83 24/35/84
s 7
f 63/79/26 10/10/25 26/37/85 62/78/86
s 12
f 72/90/60 7/7/59 23/34/87 71/88/88
s 1
f 4/4/4 68/85/3 57/73/89 27/38/90
s 18
f 5/5/91 46/58/92 47/59/93 28/39/94
s 19
f 60/76/95 7/7/96 30/41/97 59/75/98
s 12
f 49/62/64 4/4/63 27/38/99 48/60/100
s 1
f 5/5/8 44/56/7 35/46/101 31/42/102
s 11
f 6/6/56 54/69/55 55/71/103 32/43/104
s 20
f 37/48/105 8/8/106 34/45/107 36/47/108
s 21
f 46/58/109 5/5/110 31/42/111 45/57/112
s 4
f 35/46/14 32/43/113 55/71/114 56/72/15
s 20
f 9/9/115 37/48/105 36/47/108 33/44/116
s 14
f 38/49/67 37/48/66 9/9/117 20/31/118
s 6
f 80/101/23 38/49/22 20/31/119 79/100/120
s 7
f 12/12/121 40/51/30 39/50/72 21/32/122
f 41/52/31 40/51/30 12/12/121 15/15/123
s 9
f 42/53/39 76/95/38 77/96/124 18/18/125
f 43/55/47 52/66/46 53/67/126 3/21/127
s 1
f 44/56/7 43/54/6 3/3/128 6/6/129
f 35/46/101 44/56/7 6/6/129 32/43/130
s 21
f 8/8/131 46/58/109 45/57/112 34/45/132
s 18
f 47/59/93 46/58/92 8/8/133 29/40/134
s 3
f 48/60/12 58/74/11 59/75/135 30/41/136
s 12
f 7/7/59 49/62/64 48/60/100 30/41/137
f 16/27/58 50/63/61 49/61/64 7/29/59
s 9
f 16/16/36 65/81/35 66/82/42 50/64/41
f 17/17/40 42/53/39 52/66/46 51/65/45
f 53/67/126 52/66/46 42/53/39 18/18/125
s 11
f 54/70/55 53/68/54 18/23/49 9/25/52
f 55/71/103 54/69/55 9/9/52 33/44/138
s 4
f 56/72/15 55/71/114 33/44/139 36/47/140
f 45/57/16 56/72/15 36/47/140 34/45/141
s 3
f 57/73/10 28/39/142 47/59/143 58/74/11
f 59/75/135 58/74/11 47/59/143 29/40/144
s 19
f 8/8/145 60/76/95 59/75/98 29/40/146
s 16
f 61/77/79 60/76/78 8/8/147 24/35/148
s 5
f 70/87/19 61/77/18 24/35/149 69/86/150
s 7
f 11/11/29 63/79/26 62/78/86 25/36/151
f 64/80/27 63/79/26 11/11/29 14/14/32
s 9
f 65/81/35 74/93/34 75/94/37 17/17/40
f 66/82/42 65/81/35 17/17/40 51/65/45
f 67/84/43 66/82/42 51/65/45 2/20/48
s 1
f 68/85/3 67/83/2 2/2/5 5/5/8
f 57/73/89 68/85/3 5/5/8 28/39/152
s 5
f 62/78/153 70/87/19 69/86/150 25/36/154
f 71/88/20 70/87/19 62/78/153 26/37/155
s 12
f 10/10/156 72/90/60 71/88/88 26/37/157
f 13/26/158 73/91/57 72/89/60 10/28/156
s 9
f 13/13/159 64/80/160 74/93/34 73/92/33
f 75/94/37 74/93/34 64/80/160 14/14/161
f 14/14/161 41/52/162 76/95/38 75/94/37
f 77/96/124 76/95/38 41/52/162 15/15/163
s 11
f 78/99/51 77/97/50 15/22/164 12/24/165
f 79/100/69 78/98/51 12/12/165 21/32/166
s 6
f 39/50/167 80/101/23 79/100/120 21/32/168
f 81/102/24 80/101/23 39/50/167 22/33/169
s 15
f 11/11/170 82/103/73 81/102/76 22/33/171
s 17
f 69/86/83 82/103/82 11/11/172 25/36/173
